<?xml version="1.0" standalone="no"?>
<!DOCTYPE svg PUBLIC "-//W3C//DTD SVG 20010904//EN"
 "http://www.w3.org/TR/2001/REC-SVG-20010904/DTD/svg10.dtd">
<svg version="1.0" xmlns="http://www.w3.org/2000/svg"
 width="1024.000000pt" height="1024.000000pt" viewBox="0 0 1024.000000 1024.000000"
 preserveAspectRatio="xMidYMid meet">

<g transform="translate(0.000000,1024.000000) scale(0.100000,-0.100000)"
fill="#000000" stroke="none">
<path d="M3249 6906 c-131 -47 -223 -165 -250 -322 -19 -109 -6 -477 20 -583
40 -157 121 -305 238 -431 77 -84 157 -142 270 -199 l82 -41 -49 -102 c-79
-165 -115 -318 -135 -572 -15 -193 -58 -289 -239 -540 -154 -215 -177 -265
-177 -396 -1 -126 50 -229 151 -309 88 -70 190 -96 310 -79 116 15 184 65 444
326 l179 180 208 -198 c298 -284 355 -316 533 -308 112 5 173 33 256 117 71
71 102 136 108 223 5 83 -9 128 -54 168 -52 45 -104 42 -154 -8 -32 -32 -38
-45 -45 -99 -11 -98 -59 -143 -154 -143 -42 0 -56 5 -88 32 -53 46 -417 391
-421 399 -6 15 94 90 147 110 84 31 186 36 731 29 583 -6 528 6 693 -146 665
-608 649 -593 742 -641 217 -111 484 -26 583 185 24 50 27 69 27 162 0 188
-17 211 -487 650 -109 102 -198 187 -198 190 0 3 33 13 73 22 89 22 234 92
313 153 296 227 399 661 241 1017 -77 172 -221 321 -414 426 l-68 37 -5 157
c-5 154 -5 157 -35 199 -37 52 -86 79 -145 79 -63 0 -93 -19 -222 -141 -62
-58 -132 -122 -155 -143 l-43 -38 -57 54 c-280 263 -359 303 -479 243 -52 -26
-88 -70 -104 -126 -6 -19 -10 -138 -10 -266 l0 -231 -407 -5 c-368 -4 -416 -6
-493 -25 -254 -61 -480 -179 -649 -338 -44 -41 -87 -74 -97 -74 -33 0 -171 66
-237 113 -114 82 -189 185 -244 338 -25 69 -27 87 -31 288 -2 117 -1 229 3
247 10 53 57 100 120 119 92 26 124 89 84 164 -40 76 -125 108 -210 77z m2560
-689 c406 -363 399 -358 490 -321 46 18 71 51 71 94 0 27 3 30 33 30 81 0 231
-66 329 -144 108 -86 183 -204 219 -344 50 -198 -12 -416 -161 -556 -128 -121
-276 -172 -475 -163 -184 7 -336 72 -458 193 -90 90 -162 229 -186 358 -15 84
-15 966 0 966 6 0 68 -51 138 -113z m-398 -702 c7 -242 19 -305 80 -428 123
-245 317 -413 574 -497 64 -21 78 -32 195 -144 127 -123 544 -515 631 -594 53
-47 74 -96 66 -148 -8 -47 -43 -93 -83 -110 -45 -19 -128 -18 -166 2 -39 20
-303 258 -603 543 -188 179 -251 221 -400 264 -65 19 -106 20 -562 25 -535 4
-639 -1 -772 -43 -138 -44 -197 -92 -548 -450 -176 -178 -332 -331 -349 -340
-93 -48 -216 23 -218 128 -1 35 6 54 36 98 21 30 87 126 148 214 181 260 217
357 244 645 9 96 23 202 31 236 84 365 384 672 760 779 140 39 186 43 570 41
l360 -1 6 -220z"/>
<path d="M6475 5560 c-45 -10 -71 -27 -100 -64 -52 -68 -42 -149 26 -210 34
-32 45 -36 93 -36 92 0 162 65 160 149 -1 101 -90 180 -179 161z"/>
</g>
</svg>
