<svg width="448" height="53" viewBox="0 0 448 53" fill="none" xmlns="http://www.w3.org/2000/svg">
<g clip-path="url(#clip0_1_67)">
<path d="M29.6739 12.4219L26.1877 22.38C23.9051 19.3022 21.2836 17.7633 18.3231 17.7633C16.6768 17.7633 15.8537 18.3844 15.8537 19.6266C15.8537 20.013 16.1097 20.4064 16.6215 20.8067C17.1472 21.2069 18.5098 21.8349 20.7095 22.6906C23.1304 23.643 24.9911 24.5125 26.2915 25.2992C27.6057 26.0721 28.588 27.0659 29.2381 28.2805C29.8883 29.495 30.2134 30.9098 30.2134 32.5246C30.2134 35.9061 28.9269 38.4871 26.3537 40.2676C23.7806 42.0342 19.997 42.9176 15.0029 42.9176C9.4002 42.9176 4.57213 42.124 0.518768 40.5367L3.94268 29.9781C4.93872 31.524 6.16995 32.7523 7.63636 33.6633C9.11662 34.5742 10.5345 35.0296 11.8903 35.0296C12.5544 35.0296 13.1077 34.8571 13.5504 34.5121C14.0069 34.1671 14.2351 33.7461 14.2351 33.2492C14.2351 32.78 14.0138 32.3314 13.5711 31.9035C13.1423 31.4756 11.9941 30.8821 10.1265 30.1231C8.43873 29.4467 7.04149 28.7912 5.93477 28.1563C4.82805 27.5075 3.8666 26.5898 3.05039 25.4027C2.23419 24.2158 1.82608 22.7183 1.82608 20.9102C1.82608 17.4044 3.10572 14.7613 5.66501 12.9809C8.2243 11.2004 12.001 10.3102 16.995 10.3102C21.5603 10.3102 25.7866 11.0141 29.6739 12.4219ZM34.1976 42.4V10.8071H48.2045V42.4H34.1976ZM69.5158 42.9176C64.992 42.9176 61.1531 41.3373 57.999 38.1766C54.8587 35.0021 53.2885 31.1375 53.2885 26.5829C53.2885 22.0419 54.8587 18.1981 57.999 15.0512C61.1531 11.8905 64.992 10.3102 69.5158 10.3102C74.0533 10.3102 77.8923 11.8905 81.0326 15.0512C84.1867 18.1981 85.7638 22.0419 85.7638 26.5829C85.7638 31.1375 84.1867 35.0021 81.0326 38.1766C77.8923 41.3373 74.0533 42.9176 69.5158 42.9176ZM69.5158 22.4215C68.6166 22.4215 67.8695 22.7389 67.2747 23.3738C66.6798 23.995 66.3824 24.7817 66.3824 25.734C66.3824 26.6863 66.6798 27.48 67.2747 28.1148C67.8695 28.7359 68.6166 29.0465 69.5158 29.0465C70.4289 29.0465 71.1828 28.7359 71.7776 28.1148C72.3725 27.48 72.6699 26.6863 72.6699 25.734C72.6699 24.7817 72.3725 23.995 71.7776 23.3738C71.1828 22.7389 70.4289 22.4215 69.5158 22.4215ZM117.367 12.4219L113.881 22.38C111.599 19.3022 108.977 17.7633 106.017 17.7633C104.371 17.7633 103.547 18.3844 103.547 19.6266C103.547 20.013 103.803 20.4064 104.315 20.8067C104.841 21.2069 106.203 21.8349 108.404 22.6906C110.824 23.643 112.684 24.5125 113.985 25.2992C115.3 26.0721 116.282 27.0659 116.932 28.2805C117.582 29.495 117.907 30.9098 117.907 32.5246C117.907 35.9061 116.621 38.4871 114.047 40.2676C111.474 42.0342 107.691 42.9176 102.696 42.9176C97.0938 42.9176 92.2659 42.124 88.2124 40.5367L91.6364 29.9781C92.6324 31.524 93.864 32.7523 95.3301 33.6633C96.8105 34.5742 98.228 35.0296 99.5844 35.0296C100.248 35.0296 100.802 34.8571 101.244 34.5121C101.7 34.1671 101.929 33.7461 101.929 33.2492C101.929 32.78 101.707 32.3314 101.265 31.9035C100.836 31.4756 99.688 30.8821 97.8198 30.1231C96.1323 29.4467 94.7352 28.7912 93.6284 28.1563C92.5217 27.5075 91.5602 26.5898 90.7439 25.4027C89.9276 24.2158 89.5194 22.7183 89.5194 20.9102C89.5194 17.4044 90.7997 14.7613 93.3584 12.9809C95.918 11.2004 99.695 10.3102 104.689 10.3102C109.254 10.3102 113.48 11.0141 117.367 12.4219Z" fill="#1A4661"/>
<path d="M130.212 24.8023V10.807H158.351V24.8023H151.296V42.4H137.268V24.8023H130.212ZM185.514 32.8972V37.2656C182.705 40.937 178.666 42.7726 173.395 42.7726C169.052 42.7726 165.558 41.5718 162.916 39.1703C160.273 36.7549 158.952 33.5804 158.952 29.6468C158.952 25.9064 160.163 22.8562 162.584 20.496C165.019 18.1358 168.173 16.9558 172.046 16.9558C174.025 16.9558 175.858 17.2871 177.545 17.9496C179.234 18.6121 180.693 19.5851 181.924 20.8687C183.155 22.1523 184.062 23.6429 184.642 25.3406C185.223 27.0383 185.514 29.1085 185.514 31.5516H172.42C172.89 32.8213 173.679 33.815 174.786 34.5328C175.892 35.2504 177.158 35.6093 178.583 35.6093C181.46 35.6093 183.77 34.7053 185.514 32.8972ZM171.652 27.1831H177.69C177.636 25.941 177.324 24.9748 176.757 24.2847C176.204 23.5808 175.477 23.2289 174.578 23.2289C173.789 23.2289 173.105 23.567 172.523 24.2433C171.943 24.9058 171.652 25.8858 171.652 27.1831ZM212.677 18.4464V29.3777C210.131 28.1631 207.793 27.5558 205.663 27.5558C204.431 27.5558 203.47 27.756 202.778 28.1562C202.101 28.5427 201.762 29.081 201.762 29.771C201.762 31.3721 203.249 32.1726 206.223 32.1726C208.769 32.1726 210.92 31.7379 212.677 30.8683V41.6754C210.173 42.4068 207.496 42.7726 204.647 42.7726C199.638 42.7726 195.765 41.5718 193.026 39.1703C190.287 36.7687 188.917 33.7185 188.917 30.0195C188.917 26.3206 190.225 23.222 192.839 20.7237C195.454 18.2118 198.961 16.9558 203.36 16.9558C206.417 16.9558 209.522 17.4527 212.677 18.4464ZM230.025 10.807V20.7237C232.003 18.4189 234.528 17.2664 237.598 17.2664C240.434 17.2664 242.669 18.0945 244.302 19.7508C245.948 21.407 246.771 23.712 246.771 26.6656V42.4H234.652V27.9906C234.652 25.8927 233.843 24.8437 232.224 24.8437C231.491 24.8437 230.758 25.1681 230.025 25.8168V42.4H217.18V10.807H230.025ZM250.921 36.1683C250.921 34.305 251.578 32.7178 252.892 31.4066C254.221 30.0816 255.819 29.4191 257.686 29.4191C259.54 29.4191 261.124 30.0816 262.438 31.4066C263.766 32.7178 264.43 34.305 264.43 36.1683C264.43 38.0178 263.766 39.605 262.438 40.93C261.124 42.255 259.54 42.9175 257.686 42.9175C255.819 42.9175 254.221 42.255 252.892 40.93C251.578 39.605 250.921 38.0178 250.921 36.1683ZM269.368 42.4V10.807H283.396V34.4706H295.681V42.4H269.368ZM298.627 27.7214V20.2269C302.252 18.2532 306.36 17.2664 310.954 17.2664C315.325 17.2664 318.548 18.198 320.624 20.0612C322.699 21.9246 323.736 24.7747 323.736 28.6117V42.4H310.912V40.5367C309.016 41.9169 306.935 42.607 304.666 42.607C302.757 42.607 301.166 41.9928 299.894 40.7644C298.62 39.5222 297.984 37.9626 297.984 36.0855C297.984 33.9462 298.773 32.2071 300.349 30.8683C301.927 29.5157 303.988 28.8394 306.534 28.8394C308.027 28.8394 309.487 29.0326 310.912 29.4191C310.912 28.2597 310.462 27.3557 309.564 26.707C308.678 26.0583 307.44 25.7339 305.849 25.7339C303.497 25.7339 301.09 26.3964 298.627 27.7214ZM310.912 36.8929V33.4148C310.137 33.1525 309.439 33.0214 308.816 33.0214C308.042 33.0214 307.419 33.2216 306.949 33.6218C306.478 34.0221 306.243 34.5466 306.243 35.1953C306.243 35.8716 306.492 36.4375 306.99 36.8929C307.502 37.3483 308.145 37.5762 308.92 37.5762C309.709 37.5762 310.373 37.3483 310.912 36.8929ZM341.209 10.807V18.2394C342.827 17.5907 344.446 17.2664 346.064 17.2664C349.592 17.2664 352.525 18.4395 354.863 20.7858C357.2 23.1322 358.37 26.0858 358.37 29.6468C358.37 33.2354 357.145 36.2581 354.696 38.7148C352.248 41.1716 348.803 42.4 344.362 42.4H328.384V10.807H341.209ZM341.209 33.332H341.499C342.578 33.332 343.415 33.2768 344.01 33.1664C344.618 33.0421 345.11 32.7523 345.483 32.2968C345.87 31.8275 346.064 31.096 346.064 30.1023C346.064 29.1775 345.815 28.446 345.317 27.9078C344.819 27.3695 344.141 27.1004 343.284 27.1004C342.606 27.1004 341.914 27.2935 341.209 27.68V33.332Z" fill="#5FC1C7"/>
<path d="M446.806 24.2387C446.584 24.1835 446.498 24.0732 446.418 23.8762C446.228 23.3877 446.039 22.907 445.794 22.4421C444.797 20.551 443.358 19.0618 441.515 17.9824C441.238 17.8168 441.049 17.6277 440.882 17.3756C439.768 15.7051 438.233 14.7044 436.233 14.3735C434.051 14.0111 431.876 14.1371 429.685 14.3498C428.214 14.4917 426.736 14.5784 425.257 14.5705C424.111 14.5705 422.996 14.271 421.952 13.751C420.821 13.1837 420.054 12.2381 419.358 11.2296C418.274 9.66155 417.12 8.15655 415.792 6.77763C414.804 5.74541 413.76 4.77623 412.463 4.1301C411.459 3.62582 410.462 3.57066 409.466 4.1301C408.786 4.5162 408.114 4.91806 407.441 5.3278C406.429 5.95028 405.433 6.58852 404.302 6.9825C402.388 7.6365 400.19 7.26616 398.846 5.34356C398.624 5.0205 398.403 4.69743 398.15 4.39801C397.85 4.05131 397.541 3.71249 397.193 3.42095C396.838 3.12152 396.41 2.97182 395.912 3.09789C395.509 3.20033 395.09 3.21608 394.694 3.32639C394.378 3.41307 394.244 3.33427 394.165 3.02697C394.117 2.84575 393.998 2.68027 393.896 2.50693C393.421 1.7426 392.946 0.978292 392.472 0.206098C392.314 -0.0460472 392.156 -0.0696858 391.966 0.150941C391.872 0.269134 391.776 0.395207 391.721 0.537038C391.444 1.27772 391.144 2.01051 390.922 2.76694C390.645 3.68885 390.408 4.62652 391.033 5.50114C390.985 5.5563 390.969 5.57995 390.946 5.60358C389.032 7.35284 387.119 9.09418 385.213 10.8434C385.071 10.9696 384.968 10.9696 384.818 10.8907C384.035 10.4495 383.244 10.0161 382.453 9.58275C382.169 10.3156 382.034 12.1357 382.201 13.1758C382.279 13.6722 382.05 13.9243 381.56 13.8614C381.141 13.8061 380.721 13.7353 380.31 13.6328C376.562 12.6952 373.652 10.5204 371.311 7.51831C371.264 7.45527 371.217 7.40012 371.138 7.31343C370.869 8.67659 370.955 9.97672 371.201 11.2768C371.675 13.7432 372.64 16.0203 373.81 18.2266C374.166 18.8964 374.546 19.5504 374.894 20.165C374.586 20.488 374.292 20.7795 374.023 21.0868C372.885 22.4343 373.003 24.4909 374.308 25.6806C375.851 27.091 377.416 28.47 378.966 29.8647C380.168 30.9441 381.56 31.1491 383.007 30.4163C385.917 28.9506 388.827 27.4771 391.745 26.0037C391.872 25.9407 392.005 25.8776 392.18 25.7988C391.998 26.5867 391.832 27.3038 391.665 28.013C391.176 30.2035 391.444 32.3073 392.401 34.3245C392.575 34.6869 392.836 35.0258 393.105 35.3331C393.263 35.5222 393.342 35.6876 393.342 35.9319C393.342 39.0364 393.342 42.141 393.342 45.2534C393.342 46.5692 394.314 47.6252 395.627 47.6646C396.901 47.704 398.174 47.6882 399.455 47.6882C399.652 47.6882 399.85 47.6724 400.04 47.633C401.203 47.3808 401.961 46.4117 401.961 45.1746C401.961 42.535 401.961 39.8953 401.961 37.2556V36.8381C402.088 36.8538 402.183 36.8617 402.277 36.8775C402.973 36.9957 403.669 37.1217 404.373 37.2321C407.054 37.6496 409.75 37.9255 412.463 38.0357C414.116 38.1066 415.776 38.1776 417.429 38.1145C419.682 38.02 421.928 37.8467 424.174 37.626C426.467 37.3975 428.761 37.0823 431.046 36.7987C431.899 36.6962 432.746 36.5623 433.655 36.4362V36.8695C433.655 39.6353 433.655 42.4089 433.655 45.1746C433.655 46.5851 434.596 47.6172 436.004 47.6646C437.308 47.7118 438.621 47.7118 439.926 47.6646C441.325 47.6172 442.266 46.5929 442.266 45.214C442.266 39.6353 442.266 34.0487 442.266 28.47C442.266 27.7215 442.227 26.9728 442.227 26.2322C442.227 24.672 442.258 23.104 442.25 21.5439C442.25 21.1421 442.18 20.7323 442.132 20.2674C442.235 20.3462 442.298 20.3856 442.346 20.4328C443.563 21.5439 444.481 22.8598 445.018 24.4199C445.09 24.6248 445.09 24.7902 444.971 24.9952C444.647 25.5546 444.742 26.2874 445.161 26.7917C445.556 27.2644 446.252 27.4693 446.853 27.2802C447.548 27.0675 448.015 26.4292 448 25.7122C447.984 24.9952 447.502 24.3727 446.79 24.1993L446.806 24.2387ZM387.284 18.7782C385.972 18.7782 384.913 17.7223 384.913 16.4143C384.913 15.1063 385.972 14.0505 387.284 14.0505C388.597 14.0505 389.657 15.1063 389.657 16.4143C389.657 17.7223 388.597 18.7782 387.284 18.7782Z" fill="#1A4661"/>
</g>
<defs>
<clipPath id="clip0_1_67">
<rect width="448" height="53" fill="white"/>
</clipPath>
</defs>
</svg>
