<svg width="362" height="362" viewBox="0 0 362 362" fill="none" xmlns="http://www.w3.org/2000/svg">
<rect width="362" height="362" rx="181" fill="white"/>
<path fill-rule="evenodd" clip-rule="evenodd" d="M235.502 237.25C234.777 236.543 234.777 235.848 235.502 235.167C234.304 234.207 233.079 234.108 231.827 234.869C226.986 232.545 222.291 229.965 217.743 227.131C218.097 225.827 217.484 224.835 215.906 224.155C215.513 225.043 214.901 225.639 214.068 225.94C213.326 224.318 212.203 222.929 210.7 221.774C211.604 216.028 214.768 211.861 220.192 209.274C221.768 209.902 223.4 210.001 225.091 209.571C225.458 208.606 225.866 207.713 226.316 206.893C226.209 208.577 227.025 209.569 228.765 209.869C227.586 211.836 225.953 212.233 223.866 211.059C222.318 211.216 220.89 211.712 219.58 212.548C218.446 214.292 217.017 215.78 215.293 217.012C214.825 218.08 214.416 219.171 214.068 220.286C215.28 221.86 216.708 223.249 218.355 224.452C221.519 226.088 224.58 227.874 227.541 229.809C231.005 231.293 234.271 233.079 237.339 235.167C238.339 235.461 239.36 235.559 240.401 235.464C241.831 228.318 243.259 221.176 244.687 214.036C244.218 210.263 243.095 206.692 241.319 203.321C237.254 198.971 233.172 194.607 229.072 190.226C227.716 188.682 226.593 186.995 225.704 185.167C225.792 184.707 225.996 184.31 226.316 183.976C227.607 183.762 228.832 183.365 229.99 182.786C233.533 179.467 237.106 176.193 240.707 172.964C241.115 171.972 241.115 170.98 240.707 169.988C238.039 166.4 235.079 163.027 231.827 159.869C229.582 162.448 227.337 165.028 225.091 167.607C227.972 168.504 230.626 169.794 233.052 171.476C232.378 172.085 231.562 172.383 230.603 172.369C227.498 171.639 224.437 170.746 221.417 169.69C212.558 165.756 203.577 162.185 194.472 158.976C192.644 158.46 190.807 158.261 188.961 158.381C193.066 163.487 196.945 168.745 200.596 174.155C201.496 175.826 202.006 177.612 202.127 179.512C204.095 198.117 204.707 216.768 203.964 235.464C203.796 239.295 202.877 242.867 201.208 246.179C201.208 245.186 201.208 244.195 201.208 243.202C200.315 243.162 199.499 243.361 198.759 243.798C195.327 242.33 191.856 240.842 188.349 239.333C185.408 238.082 182.346 237.387 179.163 237.25C179.061 240.035 179.163 242.812 179.469 245.583C180.38 245.973 181.094 246.568 181.612 247.369C187.108 247.963 192.62 248.162 198.147 247.964C197.656 248.882 197.452 249.874 197.534 250.94C192.635 250.94 187.736 250.94 182.837 250.94C182.656 252.271 182.861 253.461 183.45 254.512C187.641 254.909 191.928 255.305 196.309 255.702C195.973 256.986 195.564 258.177 195.085 259.274C195.085 258.679 195.085 258.083 195.085 257.488C190.793 257.389 186.507 257.488 182.225 257.786C181.732 258.959 180.915 259.852 179.775 260.464C174.889 261.158 169.99 261.257 165.078 260.762C163.675 259.994 162.45 259.002 161.404 257.786C155.264 257.089 149.14 256.493 143.033 256C142.488 270.945 139.427 285.429 133.847 299.452C135.341 301.701 137.077 303.785 139.052 305.702C139.357 307.477 139.459 309.263 139.358 311.059C145.082 311.082 150.798 311.28 156.505 311.655C156.679 310.59 156.475 309.598 155.893 308.679C154.025 308.383 153.412 307.49 154.055 306C167.941 307.29 181.822 306.992 195.697 305.107C196.153 307.261 196.357 309.443 196.309 311.655C200.087 311.178 203.761 310.285 207.332 308.976C209.578 308.778 211.823 308.579 214.068 308.381C213.287 306.298 212.165 304.412 210.7 302.726C210.36 301.307 210.461 299.918 211.007 298.559C212.026 299.452 213.25 300.047 214.681 300.345C215.052 300.271 215.256 300.073 215.293 299.75C215.906 299.948 216.314 300.345 216.518 300.94C215.272 302.223 215.068 303.612 215.906 305.107C217.021 308.052 216.612 310.731 214.681 313.143C216.535 319.038 214.289 322.212 207.945 322.667C201.772 323.894 198.506 321.414 198.147 315.226C196.905 315.323 195.681 315.223 194.472 314.929C194.04 313.065 193.632 311.18 193.248 309.274C192.125 309.076 191.002 308.877 189.879 308.679C179.799 309.632 169.695 310.029 159.567 309.869C159.458 311.486 159.152 313.073 158.648 314.631C157.343 315.393 156.016 315.393 154.668 314.631C154.534 322.998 150.248 326.47 141.808 325.048C140.714 324.58 139.796 323.886 139.052 322.964C139.151 320.008 139.253 317.032 139.358 314.036C137.866 314.145 136.54 313.748 135.378 312.845C135.944 311.13 136.352 309.345 136.603 307.488C134.856 305.969 133.325 304.283 132.01 302.429C127.15 301.518 122.251 301.32 117.313 301.833C115.133 302.564 113.092 303.556 111.189 304.809C104.479 305.583 97.9466 304.889 91.5928 302.726C91.2096 300.42 92.2302 299.328 94.6547 299.452C98.87 294.539 102.238 289.083 104.759 283.083C109.856 271.495 114.653 259.789 119.15 247.964C116.73 246.455 115.199 244.273 114.557 241.417C112.177 230.18 110.543 218.871 109.658 207.488C111.033 204.216 112.87 201.24 115.169 198.559C119.762 194.095 124.355 189.631 128.948 185.167C121.262 182.263 113.301 180.378 105.065 179.512C104.409 175.529 105.838 172.454 109.352 170.286C112.039 168.583 114.897 167.194 117.925 166.119C119.003 165.545 119.207 164.85 118.537 164.036C111.39 168.061 104.042 168.557 96.4919 165.524C92.4291 161.896 90.4899 157.432 90.6743 152.131C92.8549 150.546 94.9983 150.645 97.1042 152.429C100.537 156.029 103.599 159.898 106.29 164.036C111.704 163.969 116.705 162.382 121.293 159.274C121.701 158.679 121.701 158.083 121.293 157.488C117.856 152.426 116.019 146.87 115.782 140.821C110.911 130.811 109.074 120.295 110.27 109.274C110.772 106.218 112.405 104.035 115.169 102.726C119.005 106.855 122.883 111.022 126.805 115.226C127.034 114.681 127.34 114.185 127.723 113.738C130.227 113.654 132.677 113.555 135.072 113.44C138.226 105.368 139.757 97.0351 139.664 88.4405C136.875 87.6872 134.119 86.7943 131.397 85.7619C130.386 84.8869 129.773 83.7956 129.56 82.4881C130.517 79.2374 132.252 76.4596 134.765 74.1548C137.56 71.7554 140.52 69.5729 143.645 67.6071C144.415 64.7419 145.639 62.1625 147.319 59.869C143.753 60.002 140.283 59.5059 136.909 58.3809C132.337 56.9404 130.295 53.865 130.785 49.1548C130.708 47.1487 131.116 45.2638 132.01 43.5C132.826 43.1031 133.643 43.1031 134.459 43.5C135.276 45.0873 136.501 46.2778 138.134 47.0714C140.787 48.1627 143.441 49.254 146.094 50.3452C148.899 45.9366 152.777 42.6628 157.73 40.5238C160.654 39.834 163.307 40.3301 165.691 42.0119C172.166 39.4603 178.494 36.5833 184.674 33.3809C186.715 32.9841 188.757 32.9841 190.798 33.3809C209.568 40.2701 227.225 49.0994 243.769 59.869C247.894 57.5161 252.079 55.2343 256.322 53.0238C260.899 51.531 262.839 53.0191 262.14 57.4881C259.409 63.419 255.225 68.1809 249.586 71.7738C249.013 74.8273 248.605 77.9027 248.362 81C249.465 85.2049 249.771 89.4708 249.28 93.7976C247.325 115.67 241.915 136.702 233.052 156.893C236.102 160.552 239.265 164.123 242.544 167.607C243.428 169.128 244.143 170.715 244.687 172.369C240.597 177.733 235.698 182.297 229.99 186.06C234.036 191.283 238.424 196.243 243.156 200.94C245.68 205.027 247.415 209.393 248.362 214.036C246.256 222.19 244.112 230.325 241.932 238.44C239.598 239.237 237.455 238.84 235.502 237.25Z" fill="#0B0B0D"/>
<path fill-rule="evenodd" clip-rule="evenodd" d="M185.899 35.4643C191.582 36.5003 197.094 38.1868 202.433 40.5238C214.383 46.6471 226.222 52.9964 237.951 59.5714C238.563 60.1667 239.176 60.7619 239.788 61.3571C236.652 62.9689 233.386 63.2665 229.99 62.25C229.889 64.4415 229.991 66.624 230.296 68.7976C230.464 69.8862 230.974 70.7791 231.827 71.4762C236.445 72.5945 241.14 73.0905 245.912 72.9643C245.809 76.5493 245.502 80.1208 244.993 83.6786C243.929 84.0518 242.807 84.2502 241.625 84.2738C231.638 83.0355 221.636 81.9443 211.619 81C206.082 79.0342 200.367 77.6452 194.472 76.8333C191.192 76.4299 187.925 76.5291 184.674 77.131C177.514 75.6391 170.37 74.0518 163.241 72.369C161.924 66.6278 158.453 65.0405 152.831 67.6071C151.259 67.0907 149.728 66.4954 148.238 65.8214C148.136 65.5238 148.034 65.2262 147.932 64.9286C149.136 63.8601 149.952 62.5704 150.381 61.0595C149.906 58.4898 149.498 55.9105 149.156 53.3214C149.145 51.7217 149.553 50.2336 150.381 48.8571C152.696 46.6371 155.35 44.8514 158.342 43.5C161.38 43.2173 164.238 43.614 166.915 44.6905C173.516 41.9993 179.844 38.9239 185.899 35.4643Z" fill="#18408E"/>
<path fill-rule="evenodd" clip-rule="evenodd" d="M133.847 47.9643C137.468 50.2195 141.346 52.0052 145.482 53.3214C146.299 54.5119 146.299 55.7024 145.482 56.8929C141.818 56.7068 138.348 55.8139 135.072 54.2143C134.171 52.2376 133.763 50.1542 133.847 47.9643Z" fill="#C3C4C3"/>
<path fill-rule="evenodd" clip-rule="evenodd" d="M258.16 55.1071C258.825 55.1786 259.233 55.5754 259.384 56.2976C258.681 57.6649 257.967 59.0538 257.241 60.4643C254.689 63.7381 251.73 66.6151 248.362 69.0952C243.472 70.2303 238.573 70.2303 233.664 69.0952C233.11 68.0836 232.906 66.9924 233.052 65.8214C236.438 65.6934 239.704 64.9989 242.85 63.7381C247.992 60.8452 253.095 57.9682 258.16 55.1071Z" fill="#C3C5C4"/>
<path fill-rule="evenodd" clip-rule="evenodd" d="M156.505 68.7976C159.493 69.3288 160.922 71.1145 160.792 74.1548C160.616 77.1037 158.983 78.691 155.893 78.9167C153.256 78.7265 152.235 77.3377 152.831 74.75C152.782 72.0206 154.006 70.0365 156.505 68.7976Z" fill="#EFE529"/>
<path fill-rule="evenodd" clip-rule="evenodd" d="M148.544 69.3929C149.156 69.3929 149.769 69.3929 150.381 69.3929C149.816 72.3526 149.715 75.3288 150.075 78.3214C152.039 81.8592 154.998 82.8512 158.954 81.2976C160.938 79.9135 162.571 78.227 163.853 76.2381C169.605 76.8399 175.321 77.832 181 79.2143C181.582 79.6414 181.684 80.1374 181.306 80.7024C179.028 83.2102 176.885 85.7896 174.876 88.4405C170.523 89.2289 166.237 88.9313 162.016 87.5476C154.259 85.5635 146.503 83.5793 138.746 81.5952C138.164 81.1682 138.062 80.6721 138.44 80.1071C141.317 77.111 144.379 74.3332 147.625 71.7738C147.877 70.9401 148.183 70.1464 148.544 69.3929Z" fill="#183E8B"/>
<path fill-rule="evenodd" clip-rule="evenodd" d="M187.124 79.5119C190.605 79.6563 194.075 79.9539 197.534 80.4048C213.589 84.5249 229.919 86.8067 246.524 87.25C245.991 100.348 244.052 113.245 240.707 125.94C237.363 135.889 233.893 145.81 230.296 155.702C228.663 158.083 227.031 160.464 225.397 162.845C224.268 164.442 222.737 165.435 220.805 165.821C211.294 161.583 201.496 158.111 191.41 155.405C189.414 154.938 187.475 155.038 185.593 155.702C185.161 157.173 185.364 158.563 186.205 159.869C189.676 164.433 193.145 168.996 196.616 173.56C197.682 175.232 198.396 177.017 198.759 178.917C193.029 179.215 187.313 179.712 181.612 180.405C158.881 184.089 140.305 177.343 125.886 160.167C126.991 159.588 128.012 158.893 128.948 158.083C128.656 157.501 128.248 157.005 127.723 156.595C126.445 156.725 125.22 156.626 124.049 156.298C122.049 153.331 120.722 150.157 120.068 146.774C121.255 148.325 122.786 149.416 124.661 150.048C133.078 151.223 140.121 148.743 145.788 142.607C147.763 139.691 148.376 136.517 147.625 133.083C144.544 129.856 141.176 126.979 137.521 124.452C139.708 124.929 141.953 125.127 144.257 125.048C144.932 123.618 145.034 122.13 144.564 120.583C141.86 118.724 139.105 116.938 136.296 115.226C139.702 106.811 141.539 98.081 141.808 89.0357C148.91 90.8113 156.055 92.4976 163.241 94.0952C167.503 94.8875 171.789 95.0857 176.101 94.6905C181.646 90.9685 185.32 85.9089 187.124 79.5119Z" fill="#C8C9C9"/>
<path fill-rule="evenodd" clip-rule="evenodd" d="M141.195 72.369C141.648 72.2911 142.056 72.3903 142.42 72.6667C139.171 75.3226 136.517 78.398 134.459 81.8929C134.663 82.2897 134.868 82.6865 135.072 83.0833C137.116 83.7783 139.158 84.4727 141.195 85.1667C138.466 85.0496 135.812 84.4543 133.235 83.381C132.954 83.1345 132.75 82.8369 132.622 82.4881C135.032 78.7571 137.889 75.3841 141.195 72.369Z" fill="#B0B0B0"/>
<path fill-rule="evenodd" clip-rule="evenodd" d="M146.094 87.25C149.128 87.0329 152.19 87.5289 155.28 88.7381C152.196 88.5364 149.134 88.0404 146.094 87.25Z" fill="#636262"/>
<path fill-rule="evenodd" clip-rule="evenodd" d="M144.257 97.9643C147.689 98.894 150.649 100.68 153.137 103.321C153.511 105.457 152.592 106.151 150.381 105.405C147.621 104.005 145.375 102.12 143.645 99.75C143.758 99.1048 143.962 98.5095 144.257 97.9643Z" fill="#1E1817"/>
<path fill-rule="evenodd" clip-rule="evenodd" d="M114.251 106.893C115.18 106.899 115.894 107.296 116.394 108.083C118.918 111.53 121.674 114.804 124.661 117.905C131.475 123.138 138.109 128.594 144.564 134.274C145.193 138.114 143.866 141.189 140.583 143.5C129.666 150.704 121.807 148.421 117.007 136.655C113.001 126.947 112.083 117.027 114.251 106.893Z" fill="#FBFBFB"/>
<path fill-rule="evenodd" clip-rule="evenodd" d="M201.208 106.298C202.45 106.201 203.675 106.301 204.883 106.595C205.646 107.485 205.646 108.377 204.883 109.274C200.684 110.542 196.398 111.336 192.023 111.655C191.848 110.59 192.052 109.598 192.635 108.679C195.564 107.87 198.422 107.076 201.208 106.298Z" fill="#0D0D0D"/>
<path fill-rule="evenodd" clip-rule="evenodd" d="M145.482 108.679C150.454 108.679 151.679 110.762 149.156 114.929C146.145 115.649 144.308 114.558 143.645 111.655C143.803 110.35 144.415 109.358 145.482 108.679Z" fill="#1F1817"/>
<path fill-rule="evenodd" clip-rule="evenodd" d="M129.56 115.821C131.856 115.433 134.102 115.929 136.296 117.31C138.233 118.748 140.274 120.037 142.42 121.179C142.989 121.886 143.193 122.68 143.033 123.56C141.119 123.342 139.282 122.846 137.521 122.071C134.6 120.262 131.947 118.179 129.56 115.821Z" fill="#DEB4C8"/>
<path fill-rule="evenodd" clip-rule="evenodd" d="M193.248 116.417C197.084 116.335 198.615 118.121 197.84 121.774C195.692 124.117 193.651 124.117 191.717 121.774C190.969 119.523 191.48 117.737 193.248 116.417Z" fill="#1E1715"/>
<path fill-rule="evenodd" clip-rule="evenodd" d="M209.169 122.369C211.277 122.251 213.318 122.548 215.293 123.262C217.517 124.695 217.721 126.382 215.906 128.321C211.456 130.123 206.863 131.511 202.127 132.488C196.377 131.99 195.459 129.708 199.371 125.643C202.644 124.358 205.91 123.267 209.169 122.369Z" fill="#131112"/>
<path fill-rule="evenodd" clip-rule="evenodd" d="M209.169 124.155C210.853 124.02 212.486 124.218 214.068 124.75C214.832 125.646 214.832 126.539 214.068 127.429C210.127 128.659 206.147 129.751 202.127 130.702C199.28 130.38 198.77 129.19 200.596 127.131C203.514 126.121 206.372 125.129 209.169 124.155Z" fill="#E0B6CA"/>
<path fill-rule="evenodd" clip-rule="evenodd" d="M93.43 154.512C94.0742 154.423 94.6866 154.522 95.2671 154.81C96.3652 156.473 97.692 157.961 99.2476 159.274C99.2278 160.523 98.8196 161.713 98.0228 162.845C95.6851 160.483 94.1542 157.705 93.43 154.512Z" fill="#45963C"/>
<path fill-rule="evenodd" clip-rule="evenodd" d="M195.085 181.893C196.513 181.893 197.943 181.893 199.371 181.893C201.208 201.505 201.616 221.148 200.596 240.821C196.057 239.312 191.566 237.626 187.124 235.762C183.65 234.142 180.078 233.646 176.407 234.274C176.303 237.862 175.997 241.433 175.489 244.988C172.909 244.148 170.255 243.751 167.528 243.798C167.556 239.74 166.536 235.971 164.466 232.488C163.956 232.29 163.445 232.091 162.935 231.893C158.548 232.911 154.159 233.308 149.769 233.083C153.157 216.583 155.198 199.916 155.893 183.083C169.078 184.029 182.143 183.632 195.085 181.893Z" fill="#C7C9C8"/>
<path fill-rule="evenodd" clip-rule="evenodd" d="M226.316 206.893C227.776 206.079 227.573 205.285 225.704 204.512C224.6 205.396 223.375 205.992 222.029 206.298C222.029 205.504 222.029 204.71 222.029 203.917C221.008 203.917 219.988 203.917 218.967 203.917C219.556 205.658 219.964 207.444 220.192 209.274C214.768 211.861 211.604 216.028 210.7 221.774C212.203 222.929 213.326 224.318 214.068 225.94C213.302 227.64 212.689 229.426 212.231 231.298C215.246 239.295 221.166 243.064 229.99 242.607C230.704 248.157 231.418 253.712 232.134 259.274C232.197 262.973 233.83 265.751 237.033 267.607C238.015 269.481 238.628 271.465 238.87 273.56C247.249 282.992 255.72 292.318 264.283 301.536C263.962 301.948 263.553 302.245 263.059 302.429C248.366 303.421 233.669 303.718 218.967 303.321C217.934 302.714 217.117 301.92 216.518 300.94C216.314 300.345 215.906 299.948 215.293 299.75C208.343 290.214 202.321 280.095 197.228 269.393C197.453 261.489 198.78 253.751 201.208 246.179C202.877 242.867 203.796 239.295 203.964 235.464C204.707 216.768 204.095 198.117 202.127 179.512C202.006 177.612 201.496 175.826 200.596 174.155C196.945 168.745 193.066 163.488 188.961 158.381C190.807 158.261 192.644 158.46 194.472 158.976C203.577 162.185 212.558 165.756 221.417 169.69C224.437 170.746 227.498 171.639 230.603 172.369C231.562 172.383 232.378 172.085 233.052 171.476C230.626 169.794 227.972 168.504 225.091 167.607C227.337 165.028 229.582 162.448 231.827 159.869C235.079 163.027 238.039 166.4 240.707 169.988C241.115 170.98 241.115 171.972 240.707 172.964C237.106 176.193 233.533 179.467 229.99 182.786C228.832 183.365 227.607 183.762 226.316 183.976C225.996 184.31 225.792 184.707 225.704 185.167C226.593 186.995 227.716 188.682 229.072 190.226C233.172 194.607 237.254 198.971 241.319 203.321C243.095 206.692 244.218 210.263 244.687 214.036C243.259 221.176 241.831 228.318 240.401 235.464C239.36 235.56 238.339 235.461 237.339 235.167C234.271 233.079 231.005 231.293 227.541 229.81C224.58 227.874 221.519 226.088 218.355 224.452C216.708 223.249 215.28 221.86 214.068 220.286C214.416 219.171 214.825 218.08 215.293 217.012C217.017 215.78 218.446 214.292 219.58 212.548C220.89 211.712 222.318 211.216 223.866 211.06C225.953 212.233 227.586 211.836 228.765 209.869C227.025 209.569 226.209 208.577 226.316 206.893Z" fill="#18408D"/>
<path fill-rule="evenodd" clip-rule="evenodd" d="M226.316 206.893C225.866 207.713 225.458 208.606 225.091 209.571C223.4 210.001 221.768 209.902 220.192 209.274C219.964 207.444 219.556 205.658 218.967 203.917C219.988 203.917 221.008 203.917 222.029 203.917C222.029 204.71 222.029 205.504 222.029 206.298C223.375 205.992 224.6 205.396 225.704 204.512C227.573 205.285 227.776 206.079 226.316 206.893Z" fill="#2A060A"/>
<path fill-rule="evenodd" clip-rule="evenodd" d="M217.743 227.131C222.291 229.965 226.986 232.545 231.827 234.869C231.186 237.38 229.552 239.067 226.928 239.929C225.141 240.257 223.508 239.86 222.029 238.738C219.703 237.073 217.56 235.188 215.599 233.083C215.113 230.663 215.827 228.679 217.743 227.131Z" fill="#C4C5C4"/>
<path fill-rule="evenodd" clip-rule="evenodd" d="M137.521 232.488C139.185 234.355 139.696 236.538 139.052 239.036C136.822 241.801 134.066 243.885 130.785 245.286C129.764 245.683 128.744 245.683 127.723 245.286C127.26 244.386 126.647 243.592 125.886 242.905C129.885 239.513 133.763 236.04 137.521 232.488Z" fill="#C5C7C6"/>
<path fill-rule="evenodd" clip-rule="evenodd" d="M157.73 235.464C159.567 235.464 161.404 235.464 163.241 235.464C163.727 237.825 164.135 240.206 164.466 242.607C164.833 244.731 163.914 245.921 161.71 246.179C156.328 245.514 150.919 245.117 145.482 244.988C146.417 242.26 147.234 239.482 147.932 236.655C151.298 236.386 154.564 235.989 157.73 235.464Z" fill="#183F8A"/>
<path fill-rule="evenodd" clip-rule="evenodd" d="M198.759 243.798C198.319 245.145 198.115 246.534 198.147 247.964C192.62 248.162 187.108 247.963 181.612 247.369C181.094 246.568 180.38 245.973 179.469 245.583C179.163 242.813 179.061 240.035 179.163 237.25C182.346 237.388 185.408 238.082 188.349 239.333C191.856 240.842 195.327 242.33 198.759 243.798Z" fill="#19408C"/>
<path fill-rule="evenodd" clip-rule="evenodd" d="M123.436 162.845C131.33 171.49 140.924 177.84 152.218 181.893C152.422 182.885 152.627 183.877 152.831 184.869C151.6 200.221 149.865 215.499 147.625 230.702C145.127 235.173 143.29 239.935 142.114 244.988C140.085 254.414 138.861 263.937 138.44 273.56C136.591 281.145 134.55 288.685 132.316 296.179C131.921 296.861 131.411 297.456 130.785 297.964C125.899 298.46 121 298.757 116.088 298.857C110.348 302.31 104.225 303.005 97.7166 300.94C100.608 296.719 103.364 292.354 105.984 287.845C112.344 273.828 117.957 259.542 122.824 244.988C124.494 245.504 125.719 246.596 126.498 248.262C127.843 249.079 129.272 249.277 130.785 248.857C134.143 246.714 137.409 244.432 140.583 242.012C142.808 238.787 143.012 235.415 141.195 231.893C142.271 230.886 142.577 229.696 142.114 228.321C140.08 224.861 138.141 221.389 136.296 217.905C138.587 213.662 140.832 209.396 143.033 205.107C142.514 204.307 141.8 203.711 140.889 203.321C138.339 206.686 136.196 210.257 134.459 214.036C133.021 212.734 131.796 211.246 130.785 209.571C130.204 209.284 129.592 209.185 128.948 209.274C128.852 210.091 128.954 210.885 129.254 211.655C132.258 216.5 135.116 221.46 137.827 226.536C138.13 227.508 138.232 228.501 138.134 229.512C136.735 229.576 135.51 230.072 134.459 231C129.713 235.221 125.018 239.388 120.375 243.5C119.794 243.787 119.182 243.886 118.537 243.798C114.799 231.397 113.064 218.699 113.332 205.702C118.452 199.041 124.27 193.089 130.785 187.845C133.608 189.695 136.16 191.877 138.44 194.393C139.154 195.484 139.869 196.576 140.583 197.667C141.685 197.807 142.706 197.51 143.645 196.774C139.863 191.207 135.372 186.246 130.173 181.893C125.481 180.487 120.786 179.197 116.088 178.024C113.435 177.677 110.781 177.379 108.127 177.131C107.93 175.808 108.338 174.717 109.352 173.857C112.94 171.618 116.614 169.535 120.375 167.607C121.913 166.315 122.933 164.728 123.436 162.845Z" fill="#18408D"/>
<path fill-rule="evenodd" clip-rule="evenodd" d="M144.257 247.964C149.581 247.959 154.889 248.257 160.179 248.857C160.442 250.671 160.442 252.556 160.179 254.512C154.636 254.161 149.125 253.565 143.645 252.726C143.849 251.139 144.053 249.552 144.257 247.964Z" fill="#8C612C"/>
<path fill-rule="evenodd" clip-rule="evenodd" d="M166.915 251.536C169.757 251.909 172.615 252.107 175.489 252.131C175.62 253.11 175.415 254.002 174.876 254.81C172.214 255.057 169.56 254.958 166.915 254.512C166.915 253.52 166.915 252.528 166.915 251.536Z" fill="#8B622E"/>
<path fill-rule="evenodd" clip-rule="evenodd" d="M177.326 258.083C176.718 258.186 176.31 257.987 176.101 257.488C179.084 255.054 179.288 252.376 176.713 249.452C173.038 249.001 169.364 248.802 165.691 248.857C164.305 250.846 163.795 250.747 164.16 248.56C165.68 247.374 167.415 246.779 169.365 246.774C172.708 247.126 175.974 247.821 179.163 248.857C179.856 251.484 179.958 254.162 179.469 256.893C178.969 257.68 178.255 258.077 177.326 258.083Z" fill="#DAD228"/>
<path fill-rule="evenodd" clip-rule="evenodd" d="M176.101 257.488C176.31 257.987 176.718 258.186 177.326 258.083C173.762 258.77 170.088 258.868 166.303 258.381C163.959 257.11 163.04 255.224 163.547 252.726C163.711 254.668 164.63 256.156 166.303 257.19C169.604 257.895 172.869 257.995 176.101 257.488Z" fill="#9B9A22"/>
<path fill-rule="evenodd" clip-rule="evenodd" d="M195.085 259.274C193.759 263.221 193.658 267.19 194.778 271.179C199.411 280.783 204.82 289.91 211.007 298.56C210.461 299.918 210.36 301.307 210.7 302.726C212.165 304.412 213.287 306.298 214.068 308.381C211.823 308.579 209.578 308.778 207.332 308.976C203.761 310.285 200.087 311.178 196.309 311.655C196.357 309.443 196.153 307.261 195.697 305.107C181.822 306.992 167.941 307.29 154.055 306C153.412 307.49 154.025 308.383 155.892 308.679C156.475 309.598 156.679 310.59 156.505 311.655C150.798 311.28 145.082 311.082 139.358 311.06C139.459 309.263 139.357 307.477 139.052 305.702C137.077 303.785 135.341 301.701 133.847 299.452C139.427 285.429 142.488 270.945 143.033 256C149.14 256.493 155.264 257.089 161.404 257.786C162.45 259.002 163.675 259.994 165.078 260.762C169.99 261.257 174.889 261.158 179.775 260.464C180.915 259.852 181.732 258.96 182.225 257.786C186.506 257.488 190.793 257.389 195.085 257.488C195.085 258.083 195.085 258.679 195.085 259.274Z" fill="#18408E"/>
<path fill-rule="evenodd" clip-rule="evenodd" d="M217.743 227.131C215.827 228.679 215.113 230.663 215.599 233.083C217.56 235.188 219.703 237.073 222.029 238.738C223.508 239.86 225.141 240.257 226.928 239.929C229.552 239.067 231.186 237.38 231.827 234.869C233.079 234.108 234.304 234.207 235.502 235.167C234.777 235.848 234.777 236.543 235.502 237.25C233.846 237.98 233.029 239.27 233.052 241.119C233.695 248.201 234.614 255.245 235.808 262.25C236.829 263.242 237.849 264.234 238.87 265.226C239.854 268.727 241.487 271.901 243.769 274.75C251.934 283.877 260.099 293.004 268.264 302.131C268.672 302.924 268.672 303.718 268.264 304.512C252.185 305.766 236.059 306.758 219.886 307.488C218.329 307.068 217.003 306.274 215.906 305.107C215.068 303.612 215.272 302.223 216.518 300.94C217.117 301.92 217.934 302.714 218.967 303.321C233.669 303.718 248.366 303.421 263.059 302.429C263.553 302.245 263.962 301.948 264.283 301.536C255.721 292.318 247.249 282.992 238.87 273.56C238.628 271.465 238.015 269.481 237.033 267.607C233.83 265.751 232.197 262.973 232.134 259.274C231.418 253.712 230.704 248.157 229.99 242.607C221.166 243.064 215.246 239.295 212.231 231.298C212.689 229.426 213.302 227.64 214.068 225.94C214.901 225.639 215.513 225.043 215.906 224.155C217.484 224.835 218.097 225.827 217.743 227.131Z" fill="#31090E"/>
<path fill-rule="evenodd" clip-rule="evenodd" d="M201.208 246.179C198.78 253.751 197.453 261.489 197.228 269.393C202.321 280.095 208.343 290.214 215.293 299.75C215.256 300.073 215.052 300.271 214.681 300.345C213.25 300.047 212.026 299.452 211.007 298.56C204.82 289.91 199.411 280.783 194.778 271.179C193.658 267.19 193.759 263.221 195.085 259.274C195.564 258.177 195.973 256.986 196.309 255.702C191.928 255.305 187.641 254.909 183.449 254.512C182.861 253.461 182.656 252.271 182.837 250.94C187.736 250.94 192.635 250.94 197.534 250.94C197.452 249.874 197.656 248.882 198.147 247.964C198.115 246.534 198.319 245.145 198.759 243.798C199.499 243.361 200.315 243.163 201.208 243.202C201.208 244.195 201.208 245.186 201.208 246.179Z" fill="#31090D"/>
<path fill-rule="evenodd" clip-rule="evenodd" d="M183.45 254.512C183.45 253.52 183.45 252.528 183.45 251.536C187.736 251.536 192.023 251.536 196.309 251.536C196.309 252.528 196.309 253.52 196.309 254.512C192.023 254.512 187.736 254.512 183.45 254.512Z" fill="#90642E"/>
<path fill-rule="evenodd" clip-rule="evenodd" d="M142.42 314.036C145.278 314.036 148.136 314.036 150.993 314.036C152.006 320.694 149.25 323.274 142.726 321.774C142.421 319.202 142.319 316.623 142.42 314.036Z" fill="#C0C2C1"/>
<path fill-rule="evenodd" clip-rule="evenodd" d="M208.557 311.655C209.752 311.492 210.67 311.889 211.313 312.845C213.402 317.019 212.074 319.301 207.332 319.69C202.981 320.124 200.94 318.239 201.208 314.036C203.763 313.34 206.212 312.546 208.557 311.655Z" fill="#C2C3C3"/>
</svg>
